<svg width="640" height="549" viewBox="0 0 640 549" fill="none" xmlns="http://www.w3.org/2000/svg">
<g clip-path="url(#clip0_176_284)">
<g filter="url(#filter0_b_176_284)">
<rect x="300.013" y="333.814" width="339.381" height="214.199" rx="18.3091" fill="#E2EEFF"/>
<rect opacity="0.4" x="592.806" y="421.741" width="10.3644" height="93.2794" rx="5.18219" transform="rotate(90 592.806 421.741)" fill="#95ABBC"/>
<rect opacity="0.4" x="587.624" y="450.415" width="10.3644" height="88.0972" rx="5.18219" transform="rotate(90 587.624 450.415)" fill="#95ABBC"/>
<rect opacity="0.4" x="597.988" y="479.088" width="10.3644" height="98.4615" rx="5.18219" transform="rotate(90 597.988 479.088)" fill="#95ABBC"/>
<g clip-path="url(#clip1_176_284)">
<path d="M448.542 455.116C448.542 483.684 425.439 506.811 396.981 506.811C368.523 506.811 345.421 483.684 345.421 455.116C345.421 426.547 368.523 403.421 396.981 403.421C425.439 403.421 448.542 426.547 448.542 455.116Z" stroke="#0A2640" stroke-width="17.351"/>
<mask id="mask0_176_284" style="mask-type:alpha" maskUnits="userSpaceOnUse" x="300" y="372" width="96" height="158">
<path d="M395.06 449.548L371.563 372.907L300.434 463.249L338.241 529.185L395.06 449.548Z" fill="#C4C4C4"/>
</mask>
<g mask="url(#mask0_176_284)">
<path d="M448.543 455.116C448.543 483.684 425.44 506.811 396.982 506.811C368.524 506.811 345.422 483.684 345.422 455.116C345.422 426.547 368.524 403.421 396.982 403.421C425.44 403.421 448.543 426.547 448.543 455.116Z" stroke="#6498DD" stroke-width="17.351"/>
</g>
<mask id="mask1_176_284" style="mask-type:alpha" maskUnits="userSpaceOnUse" x="363" y="366" width="118" height="110">
<path d="M403.013 456.265L480.741 475.297L439.665 367.82L363.794 366.584L403.013 456.265Z" fill="#6498DD"/>
</mask>
<g mask="url(#mask1_176_284)">
<path d="M370.552 499.474C346.076 484.854 338.044 453.13 352.614 428.617C367.184 404.104 398.838 396.087 423.313 410.707C447.789 425.328 455.822 457.052 441.252 481.565C426.682 506.078 395.028 514.095 370.552 499.474Z" stroke="#EE9886" stroke-width="17.351"/>
</g>
</g>
</g>
<ellipse cx="340.189" cy="356.275" rx="6.46731" ry="6.47773" fill="#FC5B00"/>
<ellipse cx="366.058" cy="356.275" rx="6.46731" ry="6.47773" fill="#ECAA00"/>
<ellipse cx="391.927" cy="356.275" rx="6.46731" ry="6.47773" fill="#009D10"/>
<g filter="url(#filter1_b_176_284)">
<rect x="-0.422852" width="639.816" height="300.435" rx="16.8421" fill="white"/>
<rect opacity="0.3" x="106.821" y="88.3313" width="15.2576" height="70.1848" rx="7.62878" transform="rotate(90 106.821 88.3313)" fill="#95ABBC"/>
<rect x="475.125" y="88.2388" width="15.4425" height="349.773" rx="7.72126" transform="rotate(90 475.125 88.2388)" fill="#6498DD"/>
<path d="M498.06 90.6517C499.065 90.6517 499.862 90.8855 500.45 91.353C501.038 91.8205 501.332 92.4664 501.332 93.2908C501.332 93.8337 501.164 94.3289 500.827 94.7763C500.49 95.2237 499.952 95.6308 499.213 95.9978C500.108 96.4251 500.744 96.875 501.121 97.3475C501.498 97.815 501.687 98.3579 501.687 98.9762C501.687 99.8911 501.367 100.623 500.729 101.17C500.091 101.713 499.216 101.985 498.105 101.985C496.929 101.985 496.024 101.728 495.391 101.216C494.757 100.698 494.44 99.9665 494.44 99.0215C494.44 97.7597 495.21 96.777 496.748 96.0732C496.054 95.6811 495.556 95.2589 495.255 94.8064C494.953 94.349 494.802 93.8388 494.802 93.2758C494.802 92.4765 495.096 91.8406 495.685 91.3681C496.278 90.8905 497.069 90.6517 498.06 90.6517ZM495.677 99.0516C495.677 99.6548 495.886 100.125 496.303 100.462C496.725 100.798 497.316 100.967 498.075 100.967C498.824 100.967 499.407 100.791 499.824 100.439C500.241 100.087 500.45 99.6046 500.45 98.9913C500.45 98.5037 500.254 98.0714 499.862 97.6944C499.47 97.3123 498.786 96.9429 497.811 96.5859C497.062 96.9077 496.519 97.2646 496.182 97.6567C495.845 98.0437 495.677 98.5087 495.677 99.0516ZM498.045 91.6697C497.416 91.6697 496.924 91.8205 496.567 92.1221C496.21 92.4237 496.031 92.8259 496.031 93.3285C496.031 93.791 496.18 94.1881 496.476 94.5199C496.773 94.8517 497.321 95.1835 498.12 95.5152C498.839 95.2136 499.347 94.8894 499.643 94.5425C499.945 94.1957 500.096 93.791 500.096 93.3285C500.096 92.8208 499.912 92.4187 499.545 92.1221C499.183 91.8205 498.683 91.6697 498.045 91.6697ZM510.554 96.307C510.554 98.2121 510.252 99.6347 509.649 100.575C509.051 101.515 508.134 101.985 506.897 101.985C505.711 101.985 504.808 101.505 504.19 100.545C503.572 99.5794 503.263 98.1669 503.263 96.307C503.263 94.3867 503.562 92.9616 504.16 92.0316C504.758 91.1016 505.67 90.6367 506.897 90.6367C508.093 90.6367 509.001 91.1218 509.619 92.0919C510.242 93.0621 510.554 94.4671 510.554 96.307ZM504.529 96.307C504.529 97.9105 504.718 99.0793 505.095 99.8132C505.472 100.542 506.073 100.907 506.897 100.907C507.731 100.907 508.335 100.537 508.707 99.7981C509.084 99.0541 509.272 97.8904 509.272 96.307C509.272 94.7235 509.084 93.5648 508.707 92.8309C508.335 92.0919 507.731 91.7225 506.897 91.7225C506.073 91.7225 505.472 92.0869 505.095 92.8158C504.718 93.5397 504.529 94.7034 504.529 96.307ZM513.155 94.0977C513.155 94.9522 513.248 95.5931 513.434 96.0204C513.62 96.4477 513.922 96.6613 514.339 96.6613C515.164 96.6613 515.576 95.8068 515.576 94.0977C515.576 92.3986 515.164 91.549 514.339 91.549C513.922 91.549 513.62 91.7602 513.434 92.1824C513.248 92.6047 513.155 93.2431 513.155 94.0977ZM516.609 94.0977C516.609 95.2438 516.415 96.1109 516.028 96.6991C515.646 97.2822 515.083 97.5737 514.339 97.5737C513.635 97.5737 513.088 97.2746 512.695 96.6764C512.308 96.0782 512.115 95.2186 512.115 94.0977C512.115 92.9566 512.301 92.097 512.673 91.5189C513.05 90.9408 513.605 90.6517 514.339 90.6517C515.068 90.6517 515.629 90.9508 516.021 91.549C516.413 92.1472 516.609 92.9968 516.609 94.0977ZM519.791 98.5163C519.791 99.3759 519.884 100.019 520.07 100.447C520.256 100.869 520.56 101.08 520.982 101.08C521.404 101.08 521.716 100.871 521.917 100.454C522.118 100.032 522.219 99.3859 522.219 98.5163C522.219 97.6567 522.118 97.0208 521.917 96.6086C521.716 96.1913 521.404 95.9827 520.982 95.9827C520.56 95.9827 520.256 96.1913 520.07 96.6086C519.884 97.0208 519.791 97.6567 519.791 98.5163ZM523.252 98.5163C523.252 99.6574 523.058 100.522 522.671 101.11C522.289 101.693 521.726 101.985 520.982 101.985C520.268 101.985 519.718 101.686 519.331 101.087C518.949 100.489 518.758 99.6322 518.758 98.5163C518.758 97.3752 518.944 96.5156 519.316 95.9375C519.693 95.3594 520.248 95.0703 520.982 95.0703C521.696 95.0703 522.252 95.3669 522.649 95.9601C523.051 96.5482 523.252 97.4003 523.252 98.5163ZM521.306 90.8101L515.191 101.834H514.083L520.198 90.8101H521.306Z" fill="white"/>
<rect opacity="0.3" x="106.822" y="138.905" width="15.2576" height="70.1848" rx="7.62878" transform="rotate(90 106.822 138.905)" fill="#95ABBC"/>
<rect x="228.817" y="139.199" width="14.6704" height="103.465" rx="7.33519" transform="rotate(90 228.817 139.199)" fill="#EE9886"/>
<path d="M254.934 144.364C254.934 145.068 254.735 145.643 254.338 146.091C253.946 146.538 253.388 146.837 252.664 146.988V147.048C253.549 147.159 254.205 147.441 254.632 147.893C255.059 148.345 255.273 148.939 255.273 149.673C255.273 150.723 254.909 151.532 254.18 152.1C253.451 152.663 252.415 152.945 251.073 152.945C250.49 152.945 249.955 152.9 249.467 152.809C248.984 152.724 248.514 152.57 248.057 152.349V151.158C248.534 151.394 249.042 151.575 249.58 151.701C250.123 151.821 250.636 151.882 251.118 151.882C253.023 151.882 253.976 151.135 253.976 149.642C253.976 148.305 252.925 147.637 250.824 147.637H249.738V146.558H250.839C251.699 146.558 252.38 146.37 252.883 145.993C253.385 145.611 253.637 145.083 253.637 144.409C253.637 143.872 253.451 143.449 253.079 143.143C252.712 142.836 252.212 142.683 251.578 142.683C251.096 142.683 250.641 142.748 250.213 142.879C249.786 143.009 249.299 143.251 248.751 143.603L248.117 142.758C248.57 142.401 249.09 142.122 249.678 141.921C250.271 141.715 250.895 141.612 251.548 141.612C252.619 141.612 253.451 141.858 254.044 142.351C254.637 142.839 254.934 143.51 254.934 144.364ZM264.246 147.267C264.246 149.172 263.944 150.595 263.341 151.535C262.743 152.475 261.825 152.945 260.589 152.945C259.403 152.945 258.5 152.465 257.882 151.505C257.264 150.54 256.954 149.127 256.954 147.267C256.954 145.347 257.254 143.922 257.852 142.992C258.45 142.062 259.362 141.597 260.589 141.597C261.785 141.597 262.693 142.082 263.311 143.052C263.934 144.022 264.246 145.427 264.246 147.267ZM258.221 147.267C258.221 148.871 258.41 150.039 258.787 150.773C259.164 151.502 259.764 151.867 260.589 151.867C261.423 151.867 262.027 151.497 262.399 150.758C262.776 150.014 262.964 148.851 262.964 147.267C262.964 145.684 262.776 144.525 262.399 143.791C262.027 143.052 261.423 142.683 260.589 142.683C259.764 142.683 259.164 143.047 258.787 143.776C258.41 144.5 258.221 145.664 258.221 147.267ZM266.847 145.058C266.847 145.912 266.94 146.553 267.126 146.981C267.312 147.408 267.614 147.622 268.031 147.622C268.856 147.622 269.268 146.767 269.268 145.058C269.268 143.359 268.856 142.509 268.031 142.509C267.614 142.509 267.312 142.72 267.126 143.143C266.94 143.565 266.847 144.203 266.847 145.058ZM270.301 145.058C270.301 146.204 270.107 147.071 269.72 147.659C269.338 148.242 268.775 148.534 268.031 148.534C267.327 148.534 266.779 148.235 266.387 147.637C266 147.038 265.807 146.179 265.807 145.058C265.807 143.917 265.993 143.057 266.365 142.479C266.742 141.901 267.297 141.612 268.031 141.612C268.76 141.612 269.321 141.911 269.713 142.509C270.105 143.107 270.301 143.957 270.301 145.058ZM273.483 149.476C273.483 150.336 273.576 150.979 273.762 151.407C273.948 151.829 274.252 152.04 274.674 152.04C275.096 152.04 275.408 151.832 275.609 151.414C275.81 150.992 275.911 150.346 275.911 149.476C275.911 148.617 275.81 147.981 275.609 147.569C275.408 147.152 275.096 146.943 274.674 146.943C274.252 146.943 273.948 147.152 273.762 147.569C273.576 147.981 273.483 148.617 273.483 149.476ZM276.944 149.476C276.944 150.618 276.75 151.482 276.363 152.07C275.981 152.653 275.418 152.945 274.674 152.945C273.96 152.945 273.41 152.646 273.023 152.048C272.641 151.45 272.45 150.592 272.45 149.476C272.45 148.335 272.636 147.476 273.008 146.898C273.385 146.32 273.94 146.031 274.674 146.031C275.388 146.031 275.943 146.327 276.341 146.92C276.743 147.508 276.944 148.361 276.944 149.476ZM274.998 141.77L268.883 152.794H267.775L273.89 141.77H274.998Z" fill="white"/>
<rect opacity="0.3" x="106.822" y="189.094" width="15.2576" height="70.1848" rx="7.62878" transform="rotate(90 106.822 189.094)" fill="#95ABBC"/>
<rect x="536.895" y="189.001" width="15.4425" height="411.543" rx="7.72127" transform="rotate(90 536.895 189.001)" fill="#6498DD"/>
<path d="M560.818 202.982H559.596V195.125C559.596 194.472 559.616 193.854 559.656 193.271C559.551 193.376 559.433 193.487 559.302 193.602C559.171 193.718 558.573 194.208 557.507 195.073L556.844 194.213L559.762 191.959H560.818V202.982ZM572.324 197.455C572.324 199.361 572.022 200.783 571.419 201.723C570.821 202.663 569.904 203.133 568.667 203.133C567.481 203.133 566.578 202.653 565.96 201.693C565.342 200.728 565.033 199.315 565.033 197.455C565.033 195.535 565.332 194.11 565.93 193.18C566.528 192.25 567.44 191.785 568.667 191.785C569.863 191.785 570.771 192.27 571.389 193.24C572.012 194.211 572.324 195.616 572.324 197.455ZM566.299 197.455C566.299 199.059 566.488 200.228 566.865 200.962C567.242 201.691 567.843 202.055 568.667 202.055C569.501 202.055 570.105 201.685 570.477 200.947C570.854 200.203 571.042 199.039 571.042 197.455C571.042 195.872 570.854 194.713 570.477 193.979C570.105 193.24 569.501 192.871 568.667 192.871C567.843 192.871 567.242 193.235 566.865 193.964C566.488 194.688 566.299 195.852 566.299 197.455ZM581.161 197.455C581.161 199.361 580.86 200.783 580.256 201.723C579.658 202.663 578.741 203.133 577.504 203.133C576.318 203.133 575.416 202.653 574.797 201.693C574.179 200.728 573.87 199.315 573.87 197.455C573.87 195.535 574.169 194.11 574.767 193.18C575.365 192.25 576.278 191.785 577.504 191.785C578.701 191.785 579.608 192.27 580.226 193.24C580.85 194.211 581.161 195.616 581.161 197.455ZM575.137 197.455C575.137 199.059 575.325 200.228 575.702 200.962C576.079 201.691 576.68 202.055 577.504 202.055C578.339 202.055 578.942 201.685 579.314 200.947C579.691 200.203 579.879 199.039 579.879 197.455C579.879 195.872 579.691 194.713 579.314 193.979C578.942 193.24 578.339 192.871 577.504 192.871C576.68 192.871 576.079 193.235 575.702 193.964C575.325 194.688 575.137 195.852 575.137 197.455ZM583.763 195.246C583.763 196.101 583.856 196.742 584.042 197.169C584.228 197.596 584.529 197.81 584.946 197.81C585.771 197.81 586.183 196.955 586.183 195.246C586.183 193.547 585.771 192.697 584.946 192.697C584.529 192.697 584.228 192.909 584.042 193.331C583.856 193.753 583.763 194.392 583.763 195.246ZM587.216 195.246C587.216 196.392 587.023 197.259 586.636 197.847C586.253 198.431 585.69 198.722 584.946 198.722C584.243 198.722 583.695 198.423 583.303 197.825C582.916 197.227 582.722 196.367 582.722 195.246C582.722 194.105 582.908 193.245 583.28 192.667C583.657 192.089 584.213 191.8 584.946 191.8C585.675 191.8 586.236 192.099 586.628 192.697C587.02 193.296 587.216 194.145 587.216 195.246ZM590.398 199.665C590.398 200.524 590.491 201.168 590.677 201.595C590.863 202.017 591.167 202.228 591.589 202.228C592.012 202.228 592.323 202.02 592.524 201.603C592.726 201.18 592.826 200.534 592.826 199.665C592.826 198.805 592.726 198.169 592.524 197.757C592.323 197.34 592.012 197.131 591.589 197.131C591.167 197.131 590.863 197.34 590.677 197.757C590.491 198.169 590.398 198.805 590.398 199.665ZM593.859 199.665C593.859 200.806 593.666 201.67 593.278 202.259C592.896 202.842 592.333 203.133 591.589 203.133C590.876 203.133 590.325 202.834 589.938 202.236C589.556 201.638 589.365 200.781 589.365 199.665C589.365 198.524 589.551 197.664 589.923 197.086C590.3 196.508 590.856 196.219 591.589 196.219C592.303 196.219 592.859 196.515 593.256 197.109C593.658 197.697 593.859 198.549 593.859 199.665ZM591.914 191.959L585.799 202.982H584.69L590.805 191.959H591.914Z" fill="white"/>
<rect opacity="0.3" x="106.822" y="239.281" width="15.2576" height="70.1848" rx="7.62878" transform="rotate(90 106.822 239.281)" fill="#95ABBC"/>
<rect x="454.278" y="239.575" width="14.6704" height="328.925" rx="7.3352" transform="rotate(90 454.278 239.575)" fill="#EE9886"/>
<path d="M474.958 253.17L479.527 243.3H473.517V242.147H480.854V243.149L476.345 253.17H474.958ZM485.846 246.437C487.007 246.437 487.919 246.726 488.583 247.304C489.251 247.877 489.586 248.664 489.586 249.664C489.586 250.805 489.221 251.7 488.492 252.349C487.769 252.997 486.768 253.321 485.491 253.321C484.25 253.321 483.302 253.123 482.649 252.726V251.519C483.001 251.745 483.438 251.924 483.961 252.054C484.483 252.18 484.999 252.243 485.506 252.243C486.391 252.243 487.077 252.034 487.565 251.617C488.058 251.2 488.304 250.597 488.304 249.807C488.304 248.269 487.361 247.5 485.476 247.5C484.999 247.5 484.36 247.573 483.561 247.719L482.913 247.304L483.327 242.147H488.809V243.3H484.398L484.119 246.61C484.697 246.495 485.273 246.437 485.846 246.437ZM492.308 245.434C492.308 246.289 492.401 246.93 492.587 247.357C492.773 247.784 493.074 247.998 493.492 247.998C494.316 247.998 494.728 247.143 494.728 245.434C494.728 243.735 494.316 242.885 493.492 242.885C493.074 242.885 492.773 243.097 492.587 243.519C492.401 243.941 492.308 244.58 492.308 245.434ZM495.761 245.434C495.761 246.58 495.568 247.447 495.181 248.035C494.799 248.619 494.236 248.91 493.492 248.91C492.788 248.91 492.24 248.611 491.848 248.013C491.461 247.415 491.267 246.555 491.267 245.434C491.267 244.293 491.453 243.433 491.825 242.855C492.202 242.277 492.758 241.988 493.492 241.988C494.22 241.988 494.781 242.287 495.173 242.885C495.565 243.484 495.761 244.333 495.761 245.434ZM498.943 249.853C498.943 250.712 499.036 251.356 499.222 251.783C499.408 252.205 499.712 252.416 500.135 252.416C500.557 252.416 500.869 252.208 501.07 251.791C501.271 251.368 501.371 250.722 501.371 249.853C501.371 248.993 501.271 248.357 501.07 247.945C500.869 247.528 500.557 247.319 500.135 247.319C499.712 247.319 499.408 247.528 499.222 247.945C499.036 248.357 498.943 248.993 498.943 249.853ZM502.404 249.853C502.404 250.994 502.211 251.858 501.824 252.447C501.442 253.03 500.879 253.321 500.135 253.321C499.421 253.321 498.87 253.022 498.483 252.424C498.101 251.826 497.91 250.969 497.91 249.853C497.91 248.712 498.096 247.852 498.468 247.274C498.845 246.696 499.401 246.407 500.135 246.407C500.848 246.407 501.404 246.703 501.801 247.297C502.203 247.885 502.404 248.737 502.404 249.853ZM500.459 242.147L494.344 253.17H493.235L499.35 242.147H500.459Z" fill="white"/>
<circle cx="23.9888" cy="24.4136" r="6.10302" fill="#FC5B00"/>
<circle cx="48.4009" cy="24.4136" r="6.10302" fill="#ECAA00"/>
<circle cx="72.813" cy="24.4136" r="6.10302" fill="#009D10"/>
<rect x="0.224922" y="0.647773" width="638.52" height="299.14" rx="16.1943" stroke="#E0E0E0" stroke-opacity="0.92" stroke-width="1.29555"/>
</g>
<g filter="url(#filter2_b_176_284)">
<rect x="0.96875" y="333.816" width="248.972" height="214.199" rx="19.4727" fill="#FDECEF"/>
</g>
<ellipse cx="29.1808" cy="364.822" rx="6.3595" ry="6.16401" fill="#FC5B00"/>
<ellipse cx="54.6193" cy="364.822" rx="6.3595" ry="6.16401" fill="#ECAA00"/>
<ellipse cx="80.0568" cy="364.822" rx="6.3595" ry="6.16401" fill="#009D10"/>
<rect width="12.5366" height="30.1432" rx="6.26828" transform="matrix(1 0 0 -1 34.2949 529.264)" fill="#9EBCE6"/>
<rect width="12.5366" height="17.4693" rx="6.26828" transform="matrix(1 0 0 -1 59.3682 516.59)" fill="#9EBCE6"/>
<rect x="84.4414" y="418.283" width="12.5366" height="80.8385" rx="6.26828" fill="#EE9886"/>
<rect x="109.515" y="443.287" width="12.5366" height="55.8334" rx="6.26828" fill="#9EBCE6"/>
<rect x="134.587" y="391.564" width="12.5366" height="107.556" rx="6.26828" fill="#EE9886"/>
<rect x="159.66" y="423.078" width="12.5365" height="76.043" rx="6.26827" fill="#9EBCE6"/>
<rect x="184.733" y="408.348" width="12.5365" height="90.772" rx="6.26827" fill="#EE9886"/>
<rect x="209.807" y="457.672" width="12.5366" height="41.4469" rx="6.26829" fill="#9EBCE6"/>
</g>
<defs>
<filter id="filter0_b_176_284" x="113.454" y="147.256" width="712.498" height="587.317" filterUnits="userSpaceOnUse" color-interpolation-filters="sRGB">
<feFlood flood-opacity="0" result="BackgroundImageFix"/>
<feGaussianBlur in="BackgroundImageFix" stdDeviation="93.2794"/>
<feComposite in2="SourceAlpha" operator="in" result="effect1_backgroundBlur_176_284"/>
<feBlend mode="normal" in="SourceGraphic" in2="effect1_backgroundBlur_176_284" result="shape"/>
</filter>
<filter id="filter1_b_176_284" x="-194.755" y="-194.332" width="1213.29" height="689.099" filterUnits="userSpaceOnUse" color-interpolation-filters="sRGB">
<feFlood flood-opacity="0" result="BackgroundImageFix"/>
<feGaussianBlur in="BackgroundImageFix" stdDeviation="97.166"/>
<feComposite in2="SourceAlpha" operator="in" result="effect1_backgroundBlur_176_284"/>
<feBlend mode="normal" in="SourceGraphic" in2="effect1_backgroundBlur_176_284" result="shape"/>
</filter>
<filter id="filter2_b_176_284" x="-185.59" y="147.258" width="622.089" height="587.317" filterUnits="userSpaceOnUse" color-interpolation-filters="sRGB">
<feFlood flood-opacity="0" result="BackgroundImageFix"/>
<feGaussianBlur in="BackgroundImageFix" stdDeviation="93.2794"/>
<feComposite in2="SourceAlpha" operator="in" result="effect1_backgroundBlur_176_284"/>
<feBlend mode="normal" in="SourceGraphic" in2="effect1_backgroundBlur_176_284" result="shape"/>
</filter>
<clipPath id="clip0_176_284">
<rect width="640" height="548.016" fill="white"/>
</clipPath>
<clipPath id="clip1_176_284">
<rect width="120.535" height="120.535" fill="white" transform="translate(336.631 394.845)"/>
</clipPath>
</defs>
</svg>
