<svg width="121" height="42" viewBox="0 0 121 42" fill="none" xmlns="http://www.w3.org/2000/svg">
<path d="M40.2033 36V4.86H52.5512C54.656 4.86 56.3788 5.28529 57.7195 6.13587C59.0747 6.97204 60.0767 8.04608 60.7254 9.358C61.3886 10.6699 61.7202 12.0251 61.7202 13.4235C61.7202 15.1391 61.3093 16.5952 60.4875 17.7917C59.6802 18.9883 58.5773 19.7957 57.1789 20.2137V19.1325C59.1396 19.5794 60.6245 20.5093 61.6337 21.9221C62.6572 23.335 63.169 24.9424 63.169 26.7445C63.169 28.5898 62.8158 30.2045 62.1094 31.5885C61.403 32.9725 60.3506 34.0537 58.9522 34.8322C57.5682 35.6107 55.8526 36 53.8054 36H40.2033ZM45.4798 31.0911H53.1567C54.0649 31.0911 54.8794 30.9109 55.6003 30.5505C56.3211 30.1757 56.8834 29.6567 57.287 28.9935C57.7051 28.3159 57.9142 27.5158 57.9142 26.5931C57.9142 25.757 57.7339 25.0073 57.3735 24.3441C57.0131 23.681 56.4869 23.1547 55.7949 22.7655C55.1029 22.3618 54.2739 22.16 53.308 22.16H45.4798V31.0911ZM45.4798 17.2944H52.4863C53.2359 17.2944 53.9063 17.1502 54.4974 16.8619C55.0885 16.5735 55.557 16.1482 55.903 15.586C56.249 15.0237 56.422 14.3317 56.422 13.51C56.422 12.4287 56.076 11.5277 55.384 10.8069C54.692 10.086 53.7261 9.72562 52.4863 9.72562H45.4798V17.2944ZM77.8031 36.6488C75.4676 36.6488 73.4276 36.1225 71.6832 35.0701C69.9388 34.0177 68.5836 32.5688 67.6177 30.7235C66.6662 28.8637 66.1904 26.7301 66.1904 24.3225C66.1904 21.8717 66.6806 19.7236 67.6609 17.8782C68.6413 16.0329 70.0037 14.5912 71.7481 13.5532C73.4925 12.5152 75.5108 11.9962 77.8031 11.9962C80.153 11.9962 82.2002 12.5225 83.9446 13.5749C85.689 14.6273 87.0442 16.0834 88.0101 17.9431C88.976 19.7885 89.4589 21.9149 89.4589 24.3225C89.4589 26.7445 88.9688 28.8854 87.9885 30.7451C87.0225 32.5905 85.6674 34.0393 83.9229 35.0917C82.1785 36.1297 80.1386 36.6488 77.8031 36.6488ZM77.8031 31.7615C79.8791 31.7615 81.4217 31.0695 82.4308 29.6855C83.44 28.3015 83.9446 26.5138 83.9446 24.3225C83.9446 22.0591 83.4328 20.257 82.4092 18.9162C81.3856 17.5611 79.8502 16.8835 77.8031 16.8835C76.4047 16.8835 75.2513 17.2007 74.3431 17.835C73.4492 18.4549 72.7861 19.3271 72.3536 20.4516C71.9211 21.5617 71.7048 22.852 71.7048 24.3225C71.7048 26.5859 72.2166 28.3952 73.2402 29.7504C74.2782 31.0911 75.7992 31.7615 77.8031 31.7615ZM96.2563 36V12.2774C96.2563 11.6863 96.2779 11.0375 96.3212 10.3311C96.3644 9.61029 96.487 8.89667 96.6888 8.19025C96.8906 7.48383 97.2583 6.84229 97.7917 6.26562C98.4548 5.53037 99.1685 5.02579 99.9325 4.75187C100.711 4.46354 101.475 4.30496 102.225 4.27612C102.974 4.23287 103.63 4.21125 104.193 4.21125H107.112V8.44975H104.409C103.414 8.44975 102.672 8.70204 102.182 9.20662C101.706 9.69679 101.468 10.3455 101.468 11.1529V36H96.2563ZM92.4935 16.7321V12.645H107.112V16.7321H92.4935ZM111.653 9.0985V4.31937H116.865V9.0985H111.653ZM111.653 36V12.645H116.865V36H111.653Z" fill="#231656"/>
<path d="M0 21.002H17.0678C21.9511 21.002 25.9099 24.9607 25.9099 29.8441C25.9099 34.7274 21.9511 38.6862 17.0678 38.6862H0V21.002Z" fill="#6498DD"/>
<path d="M0 5.52734H11.3927C15.0552 5.52734 18.0243 8.4964 18.0243 12.1589C18.0243 15.8214 15.0552 18.7905 11.3927 18.7905H0V5.52734Z" fill="#EE9886"/>
</svg>
